<?xml version="1.0" encoding="utf-8"?>
<!-- Generator: Adobe Illustrator 18.1.0, SVG Export Plug-In . SVG Version: 6.00 Build 0)  -->
<svg version="1.1" id="Layer_1" xmlns="http://www.w3.org/2000/svg" xmlns:xlink="http://www.w3.org/1999/xlink" x="0px" y="0px"
	 viewBox="0 0 345 72.4" enable-background="new 0 0 345 72.4" xml:space="preserve">
<g>
	<g>
		<path fill-rule="evenodd" clip-rule="evenodd" fill="#ffffff" d="M42.5,20.5c2.2,0,3-1.3,3.4-2.2H46v1.8h2.9V0.2h-3.1v6.7h-0.1
			c-0.6-1.3-1.8-2.1-3.5-2.1c-2.4,0-4.8,1-4.8,7.7C37.5,17.6,38.9,20.5,42.5,20.5z M43.2,7.1c2.4,0,2.8,2.1,2.8,5.7
			c0,3.2-0.5,5.3-2.6,5.3c-2.2,0-2.6-2.1-2.6-5.5C40.8,8.5,41.4,7.1,43.2,7.1z M29.4,20.5c3.4,0,5.4-2.1,5.4-5.4h-2.9
			c0,0.9-0.3,3.3-2.5,3.3c-2.3,0-2.6-2.6-2.6-4.6V13h8.1v-1.6c0-4.2-1.1-6.7-5.5-6.7c-4.9,0-5.7,4.2-5.7,8.1
			C23.7,19.8,26.9,20.5,29.4,20.5z M26.8,10.6c0-2,0.6-3.8,2.6-3.8c1.8,0,2.4,1.4,2.4,3.3V11h-5V10.6z M57.7,20.5
			c3.4,0,5.4-2.1,5.4-5.4h-2.9c0,0.9-0.3,3.3-2.5,3.3c-2.3,0-2.6-2.6-2.6-4.6V13h8.1v-1.6c0-4.2-1.1-6.7-5.5-6.7
			c-4.9,0-5.7,4.2-5.7,8.1C52,19.8,55.1,20.5,57.7,20.5z M55.1,10.6c0-2,0.6-3.8,2.6-3.8c1.8,0,2.4,1.4,2.4,3.3V11h-5V10.6z
			 M269,20.5c4.3,0,5.8-3.2,5.8-7.9c0-4.7-1.3-7.9-5.8-7.9c-4.5,0-5.7,3.2-5.7,7.9C263.3,17.3,264.8,20.5,269,20.5z M269,7
			c2.3,0,2.7,2.3,2.7,5.7c0,3.8-0.4,5.7-2.7,5.7c-2.2,0-2.6-1.8-2.6-5.7C266.4,9.3,266.8,7,269,7z M240.9,11l-2.4,0.6
			c-2.1,0.7-3.6,1.4-3.6,4.7c0,2.9,1.6,4.2,4,4.2c1.8,0,3-0.7,3.8-2.2h0.1c0.1,1.4,1.2,2,2.6,2c0.6,0,1.1-0.2,1.5-0.4v-2
			c-0.1,0.1-0.3,0.1-0.5,0.1c-0.5,0-0.8-0.5-0.8-1.1V8.4c0-2.6-2.2-3.7-4.9-3.7c-4.1,0-5.4,1.8-5.4,4.9h2.9c0-1.4,0.3-2.9,2.4-2.9
			c1.6,0,2.1,0.9,2.1,2.2C242.7,10.3,242,10.6,240.9,11z M242.7,14.7c0,2.2-0.9,3.6-2.8,3.6c-1.3,0-1.9-1-1.9-2.3
			c0-1.1,0.4-2,1.3-2.4c0.9-0.4,2.6-0.8,3.4-1.4V14.7z M252.4,18.3L252.4,18.3c0.5,1,1.2,2.2,3.4,2.2c3.6,0,5.1-2.9,5.1-8.1
			c0-6.7-2.4-7.7-4.8-7.7c-1.7,0-2.9,0.8-3.5,2.1h-0.1V0.2h-3.1v19.9h2.9V18.3z M255.2,7.1c1.8,0,2.4,1.4,2.4,5.4
			c0,3.4-0.5,5.5-2.6,5.5c-2.1,0-2.6-2.1-2.6-5.3C252.4,9.2,252.8,7.1,255.2,7.1z M293,11l-2.4,0.6c-2.1,0.7-3.6,1.4-3.6,4.7
			c0,2.9,1.6,4.2,4,4.2c1.8,0,3-0.7,3.8-2.2h0.1c0.1,1.4,1.2,2,2.6,2c0.6,0,1.1-0.2,1.5-0.4v-2c-0.1,0.1-0.3,0.1-0.5,0.1
			c-0.5,0-0.8-0.5-0.8-1.1V8.4c0-2.6-2.2-3.7-4.9-3.7c-4.1,0-5.4,1.8-5.4,4.9h2.9c0-1.4,0.3-2.9,2.4-2.9c1.6,0,2.1,0.9,2.1,2.2
			C294.8,10.3,294.2,10.6,293,11z M294.8,14.7c0,2.2-0.9,3.6-2.8,3.6c-1.3,0-1.9-1-1.9-2.3c0-1.1,0.4-2,1.3-2.4
			c0.9-0.4,2.6-0.8,3.4-1.4V14.7z M327.1,11.1c0-2.8,1.7-3.4,3.1-3.4c0.5,0,1.1,0.1,1.3,0.2V4.8c-0.2-0.1-0.4-0.1-0.7-0.1
			c-1.8,0-2.9,1.1-3.6,2.7h-0.1V5.1H324v15h3.1V11.1z M315.3,20.5c4.3,0,5.8-3.2,5.8-7.9c0-4.7-1.3-7.9-5.8-7.9
			c-4.5,0-5.7,3.2-5.7,7.9C309.5,17.3,311,20.5,315.3,20.5z M315.3,7c2.3,0,2.7,2.3,2.7,5.7c0,3.8-0.4,5.7-2.7,5.7
			c-2.2,0-2.6-1.8-2.6-5.7C312.6,9.3,313,7,315.3,7z M302.3,16.7c0,3.1,1,3.6,3.1,3.6c1,0,1.8-0.1,2.5-0.3v-2.2
			c-0.3,0.1-0.7,0.1-1.1,0.1c-1.1,0-1.4-0.4-1.4-1.6V7.4h2.5V5.1h-2.5V0.9h-3.1v4.3h-2.1v2.2h2.1V16.7z M121.4,4.9L121.4,4.9l6,15.2
			h4V0.2h-3.1V15h-0.1l-5.9-14.8h-4v19.9h3.1V4.9z M280.9,11.1c0-2.8,1.7-3.4,3.1-3.4c0.5,0,1.1,0.1,1.3,0.2V4.8
			c-0.2-0.1-0.4-0.1-0.7-0.1c-1.8,0-2.9,1.1-3.6,2.7h-0.1V5.1h-3.1v15h3.1V11.1z M17.6,11.1c0-2.8,1.7-3.4,3.1-3.4
			c0.5,0,1.1,0.1,1.3,0.2V4.8c-0.2-0.1-0.4-0.1-0.7-0.1c-1.8,0-2.9,1.1-3.6,2.7h-0.1V5.1h-3.1v15h3.1V11.1z M4.3,11.1h7.2V8.4H4.3
			V2.9h7.7V0.2H1v19.9h3.3V11.1z M232.7,17.4h-7.9V0.2h-3.3v19.9h11.2V17.4z M337.2,21.7c-0.3,0.9-1,1.2-2.1,1.2
			c-0.3,0-0.7-0.1-1-0.1v2.4c0.4,0.1,0.8,0.1,1.2,0.1c3.2,0.1,4.2-0.5,5.4-4.6L345,5.1h-3.2l-2.5,11.3h-0.1l-2.7-11.3h-3.3l4.4,15.3
			L337.2,21.7z M79.2,0h-3.1v3h3.1V0z M181.5,10.1c0-2,1.2-2.9,2.5-2.9c1.6,0,2.2,0.8,2.2,2.7v10.3h3.1V8.8c0-3-1.5-4.1-3.8-4.1
			c-1.7,0-3.2,0.8-4,2.1h-0.1V5.1h-2.9v15h3.1V10.1z M149.8,16.7c0,3.1,1,3.6,3.1,3.6c1,0,1.8-0.1,2.5-0.3v-2.2
			c-0.3,0.1-0.7,0.1-1.1,0.1c-1.1,0-1.4-0.4-1.4-1.6V7.4h2.5V5.1h-2.5V0.9h-3.1v4.3h-2.1v2.2h2.1V16.7z M198.2,11l-2.4,0.6
			c-2.1,0.7-3.6,1.4-3.6,4.7c0,2.9,1.6,4.2,4,4.2c1.8,0,3-0.7,3.8-2.2h0.1c0.1,1.4,1.2,2,2.6,2c0.6,0,1.1-0.2,1.5-0.4v-2
			c-0.1,0.1-0.3,0.1-0.5,0.1c-0.5,0-0.8-0.5-0.8-1.1V8.4c0-2.6-2.2-3.7-4.9-3.7c-4.1,0-5.4,1.8-5.4,4.9h2.9c0-1.4,0.3-2.9,2.4-2.9
			c1.6,0,2.1,0.9,2.1,2.2C200,10.3,199.3,10.6,198.2,11z M200,14.7c0,2.2-0.9,3.6-2.8,3.6c-1.3,0-1.9-1-1.9-2.3c0-1.1,0.4-2,1.3-2.4
			c0.9-0.4,2.6-0.8,3.4-1.4V14.7z M88,20.5c3.8,0,5.1-2.3,5.3-5.9h-2.9c0,2.3-0.6,3.7-2.4,3.6c-2.2,0-2.6-2.3-2.6-5.7
			C85.4,9.3,85.8,7,88,7c1.8-0.1,2.2,1.8,2.2,3.1h3.1c0-1.9-0.7-5.4-5.3-5.4c-4.5,0-5.7,3.2-5.7,7.9C82.3,17.3,83.5,20.5,88,20.5z
			 M169.7,20.5c4.3,0,5.8-3.2,5.8-7.9c0-4.7-1.3-7.9-5.8-7.9c-4.5,0-5.7,3.2-5.7,7.9C164,17.3,165.4,20.5,169.7,20.5z M169.7,7
			c2.3,0,2.7,2.3,2.7,5.7c0,3.8-0.4,5.7-2.7,5.7c-2.2,0-2.6-1.8-2.6-5.7C167.1,9.3,167.5,7,169.7,7z M160.9,0h-3.1v3h3.1V0z
			 M160.9,5.1h-3.1v15h3.1V5.1z M69.3,11.1c0-2.8,1.7-3.4,3.1-3.4c0.5,0,1.1,0.1,1.3,0.2V4.8c-0.2-0.1-0.4-0.1-0.7-0.1
			c-1.8,0-2.9,1.1-3.6,2.7h-0.1V5.1h-3.1v15h3.1V11.1z M209.9,0.2h-3.1v19.9h3.1V0.2z M140.6,11l-2.4,0.6c-2.1,0.7-3.6,1.4-3.6,4.7
			c0,2.9,1.6,4.2,4,4.2c1.8,0,3-0.7,3.9-2.2h0.1c0.1,1.4,1.2,2,2.6,2c0.6,0,1.1-0.2,1.5-0.4v-2c-0.1,0.1-0.3,0.1-0.5,0.1
			c-0.5,0-0.8-0.5-0.8-1.1V8.4c0-2.6-2.2-3.7-4.9-3.7c-4.1,0-5.4,1.8-5.4,4.9h2.9c0-1.4,0.3-2.9,2.4-2.9c1.6,0,2.1,0.9,2.1,2.2
			C142.4,10.3,141.7,10.6,140.6,11z M142.4,14.7c0,2.2-0.9,3.6-2.8,3.6c-1.3,0-1.9-1-1.9-2.3c0-1.1,0.4-2,1.3-2.4
			c0.9-0.4,2.6-0.8,3.4-1.4V14.7z M79.2,5.1h-3.1v15h3.1V5.1z M99.2,15.4l1.8-2.1l3.8,6.8h3.4l-5.3-9.2l4.7-5.8l-3.6,0l-4.7,6.3
			h-0.1V0.2h-3.1v19.9h3.1V15.4z M300.8,37.7l-2.6,0.7c-1.6,0.5-2.3,1.6-2.3,3.2c0,2.1,1,3.4,3.3,3.4c1.1,0,2.3-0.6,2.9-1.7h0
			c0.1,1.5,1,1.5,1.7,1.5c0.5,0,1-0.1,1.1-0.1v-1.3c-0.1,0.1-0.2,0.1-0.5,0.1c-0.6,0-0.6-0.5-0.6-0.9v-6.5c0-1.2,0-3.4-3.7-3.4
			c-2.9,0-4.1,1.2-4.1,3.9h1.9v-0.1c0-0.4,0-2.3,2.1-2.3c1.3,0,2,0.6,2,1.7C302.2,36.9,302.2,37.3,300.8,37.7z M302.1,41.4
			c0,1.2-1.2,2.2-2.5,2.2c-1.3,0-1.7-0.8-1.7-2c0-1,0.3-1.5,0.9-1.9c0.9-0.5,2.5-0.7,3.3-1.4V41.4z M326.3,34.4L326.3,34.4l0-5.2
			h-1.9v15.6h1.9v-8.1c0-1.7,1.4-2.4,2.4-2.4c1.7,0,1.8,1.5,1.8,2.4v8.1h1.9v-8.3c0-1.4,0-3.7-3.1-3.7
			C328.1,32.7,326.8,33.4,326.3,34.4z M155.4,33h-1.8v1.4h1.8v10.3h1.9V34.5h2.1V33h-2.1v-1.4c0-0.8,0.4-1.1,1.2-1.1h0.9V29H158
			c-1.8,0-2.6,0.9-2.6,2.7V33z M313.8,39.1c0,4,1.3,6,4.2,6c3,0,4-2.5,4-4.4h-1.9c0,1.3-0.4,2.9-2,2.9c-2.3,0-2.3-3.1-2.3-4.6
			c0-4.3,1.2-4.9,2.4-4.9c1.5,0,1.9,1.3,1.9,2.4h1.9c0-1.4-0.6-3.9-3.9-3.9C314.4,32.7,313.8,36.1,313.8,39.1z M223,45.1
			c3,0,4-2.5,4-4.4h-1.9c0,1.3-0.4,2.9-2,2.9c-2.3,0-2.3-3.1-2.3-4.6c0-4.3,1.2-4.9,2.4-4.9c1.5,0,1.9,1.3,1.9,2.4h1.9
			c0-1.4-0.6-3.9-3.9-3.9c-3.8,0-4.3,3.4-4.3,6.3C218.8,43.1,220,45.1,223,45.1z M307.1,33v11.7h1.9v-7.4c0-1.9,1.5-2.8,2.5-2.8
			c0.6,0,0.8,0.1,1,0.1v-1.8c-0.2-0.1-0.5-0.1-0.8-0.1c-1.4,0-2.1,0.9-2.6,2.1h0V33H307.1z M164.9,45.1c3.5,0,4.4-2.9,4.4-6.2
			s-0.9-6.2-4.4-6.2c-3.5,0-4.4,2.9-4.4,6.2S161.4,45.1,164.9,45.1z M164.9,34.2c2,0,2.4,2.2,2.4,4.7c0,2.5-0.4,4.7-2.4,4.7
			c-2,0-2.3-2.2-2.3-4.7C162.6,36.4,163,34.2,164.9,34.2z M239.8,33v11.7h1.9v-7.4c0-1.9,1.5-2.8,2.5-2.8c0.6,0,0.8,0.1,1,0.1v-1.8
			c-0.2-0.1-0.5-0.1-0.8-0.1c-1.4,0-2.1,0.9-2.6,2.1h0V33H239.8z M197.5,36.6h1.9v-0.1c0-0.4,0-2.3,2.1-2.3c1.3,0,2,0.6,2,1.7
			c0,1,0,1.4-1.4,1.8l-2.6,0.7c-1.6,0.5-2.3,1.6-2.3,3.2c0,2.1,1,3.4,3.3,3.4c1.1,0,2.3-0.6,2.9-1.7h0c0.1,1.5,1,1.5,1.7,1.5
			c0.5,0,1-0.1,1.1-0.1v-1.3c-0.1,0.1-0.2,0.1-0.5,0.1c-0.6,0-0.6-0.5-0.6-0.9v-6.5c0-1.2,0-3.4-3.7-3.4
			C198.7,32.7,197.5,33.9,197.5,36.6z M203.4,41.4c0,1.2-1.2,2.2-2.5,2.2c-1.3,0-1.7-0.8-1.7-2c0-1,0.3-1.5,0.9-1.9
			c0.9-0.5,2.5-0.7,3.3-1.4V41.4z M289.8,45.1c3.3,0,4.1-2.9,4.1-4.2H292c0,0.9-0.3,2.7-2.1,2.7c-2.3,0-2.3-2.7-2.3-4.5h6.4v-0.7
			c0-2.5-0.3-5.7-4.1-5.7c-3.8,0-4.3,3.4-4.3,6.3C285.6,43.1,286.8,45.1,289.8,45.1z M287.7,37.2c0-0.7,0.2-3.1,2.2-3.1
			c1.7,0,2.1,1.6,2.1,2.9v0.6h-4.3V37.2z M253.5,29.1v15.6h2v-7h2.7c1,0,2.3,0.1,2.4,2.3l0.1,2.4c0,0.8,0.2,1.9,0.5,2.3h2.4
			c-0.5-0.3-0.8-0.7-0.9-2.5l-0.1-2.7c-0.1-1.3-0.9-2.5-2.3-2.6v0c1.9-0.4,2.5-2.2,2.5-3.9c0-2.5-1.6-3.9-4.2-3.9H253.5z
			 M260.8,33.2c0,3-2.2,3-3.3,3h-2v-5.5h2.4C259.7,30.7,260.8,31.7,260.8,33.2z M229,39.1c0,4,1.3,6,4.2,6c3.3,0,4.1-2.9,4.1-4.2
			h-1.9c0,0.9-0.2,2.7-2.1,2.7c-2.3,0-2.3-2.7-2.3-4.5h6.4v-0.7c0-2.5-0.3-5.7-4.1-5.7C229.6,32.7,229,36.1,229,39.1z M231.1,37.2
			c0-0.7,0.2-3.1,2.2-3.1c1.7,0,2.1,1.6,2.1,2.9v0.6h-4.3V37.2z M208.4,33v11.7h1.9v-8.1c0-1.7,1.4-2.4,2.4-2.4
			c1.7,0,1.8,1.5,1.8,2.4v8.1h1.9v-8.3c0-1.4,0-3.7-3.2-3.7c-1.2,0-2.5,0.6-3,1.7h0V33H208.4z M279.8,43.6c-1.9,0-2.3-1.3-2.3-2.7
			h-1.9c0,1.2,0,4.2,4.2,4.2c2.3,0,3.9-1.2,3.9-3.7c0-2.3-1.5-2.8-3-3.3c-1.5-0.5-3-0.7-3-2.1c0-1.6,1.4-1.8,2-1.8
			c1.4,0,1.8,0.8,1.8,2.3h1.9c0-1.4-0.2-3.7-3.7-3.7c-2.1,0-3.9,1.1-3.9,3.2c0,2.4,1.5,2.8,3,3.3c1.5,0.5,3,0.8,3,2.4
			C281.8,43.4,280.4,43.6,279.8,43.6z M173.6,34.8L173.6,34.8l0-1.8h-1.9v11.7h1.9v-7.4c0-1.9,1.5-2.8,2.5-2.8c0.6,0,0.8,0.1,1,0.1
			v-1.8c-0.2-0.1-0.5-0.1-0.8-0.1C174.9,32.7,174.2,33.7,173.6,34.8z M273.7,38.4c0-2.5-0.3-5.7-4.1-5.7c-3.8,0-4.3,3.4-4.3,6.3
			c0,4,1.3,6,4.2,6c3.3,0,4.1-2.9,4.1-4.2h-1.9c0,0.9-0.3,2.7-2.1,2.7c-2.3,0-2.3-2.7-2.3-4.5h6.4V38.4z M271.7,37.7h-4.3v-0.4
			c0-0.7,0.2-3.1,2.2-3.1c1.7,0,2.1,1.6,2.1,2.9V37.7z M185.1,37c0,3.9,0.6,8.1,5.2,8.1c3.5,0,4.8-2.7,4.9-5.7h-2.1
			c-0.1,1.9-0.4,4.1-2.8,4.1c-2.8,0-3.1-2.9-3.1-6.5s0.4-6.5,3.1-6.5c2.1,0,2.7,1.5,2.7,3.3h2.1c-0.1-3.1-1.5-4.9-4.8-4.9
			C185.8,28.8,185.1,33,185.1,37z M0,53v1h345v-1H0z"/>
	</g>
</g>
</svg>
